<?xml version="1.0" encoding="utf-8"?>
<!-- Generator: Adobe Illustrator 16.0.0, SVG Export Plug-In . SVG Version: 6.00 Build 0)  -->
<!DOCTYPE svg PUBLIC "-//W3C//DTD SVG 1.1//EN" "http://www.w3.org/Graphics/SVG/1.1/DTD/svg11.dtd">
<svg version="1.1" id="Layer_1" xmlns="http://www.w3.org/2000/svg" xmlns:xlink="http://www.w3.org/1999/xlink" x="0px" y="0px"
	 width="270px" height="90px" viewBox="0 0 270 90" enable-background="new 0 0 270 90" xml:space="preserve">
<g>
	<path fill="#333333" d="M59.594,49.808c0,0,2.688,3.647,7.441,3.647c2.688,0,5.088-1.295,5.088-3.84
		c0-5.28-13.537-4.32-13.537-12.097c0-4.369,3.744-6.529,8.593-6.529c2.448,0,7.344,0.96,7.344,4.369v2.064h-3.072V36.27
		c0-1.776-2.592-2.448-4.176-2.448c-3.36,0-5.376,1.152-5.376,3.504c0,5.425,13.537,4.177,13.537,12.193
		c0,4.032-3.648,6.769-8.449,6.769c-6.289,0-9.265-4.225-9.265-4.225L59.594,49.808z"/>
	<path fill="#333333" d="M81.481,25.854c0-0.672-0.384-1.056-1.056-1.056h-2.016v-2.833h3.408c2.064,0,2.929,0.72,2.929,2.784
		v16.034h2.496c0.912,0,2.064-0.288,2.736-1.152l6.192-8.064h3.984l-6.961,8.833c-1.2,1.488-1.824,1.729-1.824,1.729v0.096
		c0,0,0.72,0.336,1.488,1.776l4.369,7.825c0.432,0.815,0.912,1.056,2.208,1.056h1.296v2.832h-2.256c-2.4,0-3.072-0.384-4.176-2.4
		l-4.801-8.641c-0.528-0.96-1.68-1.056-2.544-1.056h-2.208v12.097h-3.265V25.854z"/>
	<path fill="#333333" d="M106.346,62.864c2.112,0,3.552-1.728,4.464-3.937l1.44-3.312l-8.497-20.113
		c-0.384-0.864-0.816-1.104-1.68-1.104h-0.48v-2.832h1.488c2.16,0,2.832,0.48,3.696,2.64l6.192,15.073
		c0.48,1.2,0.864,2.592,0.864,2.592h0.096c0,0,0.336-1.392,0.816-2.592l5.952-15.073c0.816-2.16,1.536-2.64,3.745-2.64h1.488v2.832
		h-0.48c-0.864,0-1.344,0.24-1.68,1.104l-10.417,25.25c-1.249,3.072-3.696,5.041-6.913,5.041c-3.36,0-5.233-2.353-5.233-2.353
		l1.536-2.4C102.745,61.089,104.281,62.864,106.346,62.864z"/>
	<path fill="#333333" d="M140.666,30.654c7.008,0,10.849,5.136,10.849,11.617c0,0.72-0.145,2.256-0.145,2.256h-16.897
		c0.48,4.321,3.648,6.577,7.344,6.577c3.937,0,6.865-2.736,6.865-2.736l2.544,4.225c0,0-3.744,3.696-9.841,3.696
		c-8.113,0-13.153-5.856-13.153-12.817C128.232,35.934,133.321,30.654,140.666,30.654z M145.273,40.303
		c-0.096-2.928-2.111-4.944-4.607-4.944c-3.121,0-5.329,1.872-6.001,4.944H145.273z"/>
	<path fill="#333333" d="M157.416,37.47c0-0.72-0.384-1.056-1.056-1.056h-1.921V31.23h5.617c2.16,0,3.216,1.008,3.216,2.736v0.72
		c0,0.528-0.096,1.056-0.096,1.056h0.096c1.056-2.064,3.696-5.088,8.641-5.088c5.425,0,8.545,2.832,8.545,9.313v9.553
		c0,0.672,0.384,1.057,1.056,1.057h1.921v5.136h-5.809c-2.305,0-3.265-0.96-3.265-3.265V41.215c0-2.977-0.768-4.993-3.84-4.993
		c-3.265,0-5.713,2.064-6.577,4.993c-0.336,1.008-0.479,2.112-0.479,3.264v11.233h-6.049V37.47z"/>
	<path fill="#333333" d="M196.681,30.654c5.665,0,7.537,3.456,7.537,3.456h0.096c0,0,0-0.288,0-0.624
		c0-1.104,0.769-2.256,2.688-2.256h5.664v5.184h-1.872c-0.624,0-1.056,0.336-1.056,0.96v16.849c0,8.4-6.528,11.569-12.913,11.569
		c-3.072,0-6.337-0.864-8.689-2.112l1.873-4.801c0,0,3.023,1.633,6.769,1.633c3.696,0,6.912-1.585,6.912-6.001v-1.152
		c0-0.576,0.048-1.296,0.048-1.296h-0.096c-1.44,2.064-3.553,3.169-6.816,3.169c-7.009,0-10.993-5.665-10.993-12.386
		S189.624,30.654,196.681,30.654z M203.834,42.895c0-5.569-2.784-7.057-6.097-7.057c-3.696,0-5.713,2.688-5.713,6.816
		c0,4.273,2.16,7.441,6.097,7.441C201.05,50.096,203.834,48.415,203.834,42.895z"/>
</g>
</svg>
