<?xml version="1.0" encoding="UTF-8" standalone="no"?>
<!DOCTYPE svg PUBLIC "-//W3C//DTD SVG 1.1//EN"
 "http://www.w3.org/Graphics/SVG/1.1/DTD/svg11.dtd">
<!-- Generated by graphviz version 2.38.0 (20140413.2041)
 -->
<!-- Title: G Pages: 1 -->
<svg width="284pt" height="210pt"
 viewBox="0.00 0.00 283.64 210.00" xmlns="http://www.w3.org/2000/svg" xmlns:xlink="http://www.w3.org/1999/xlink">
<g id="graph0" class="graph" transform="scale(1 1) rotate(0) translate(4 206)">
<title>G</title>
<polygon fill="white" stroke="none" points="-4,4 -4,-206 279.644,-206 279.644,4 -4,4"/>
<!-- yiisoft/arrays -->
<g id="node1" class="node"><title>yiisoft/arrays</title>
<ellipse fill="lightgrey" stroke="black" stroke-width="2" cx="72.1436" cy="-184" rx="72.2875" ry="18"/>
<text text-anchor="middle" x="72.1436" y="-180.3" font-family="Times,serif" font-size="14.00">yiisoft/arrays</text>
</g>
<!-- php -->
<g id="node2" class="node"><title>php</title>
<path fill="#eeeeee" stroke="black" d="M66.1436,-36C66.1436,-36 36.1436,-36 36.1436,-36 30.1436,-36 24.1436,-30 24.1436,-24 24.1436,-24 24.1436,-12 24.1436,-12 24.1436,-6 30.1436,-0 36.1436,-0 36.1436,-0 66.1436,-0 66.1436,-0 72.1436,-0 78.1436,-6 78.1436,-12 78.1436,-12 78.1436,-24 78.1436,-24 78.1436,-30 72.1436,-36 66.1436,-36"/>
<text text-anchor="middle" x="51.1436" y="-14.3" font-family="Times,serif" font-size="14.00" fill="#314b5f">php</text>
</g>
<!-- yiisoft/arrays&#45;&gt;php -->
<g id="edge1" class="edge"><title>yiisoft/arrays&#45;&gt;php</title>
<path fill="none" stroke="#1a2833" d="M60.1502,-166.015C52.1711,-153.63 42.4018,-136.092 38.1436,-119 32.0887,-94.6967 36.8611,-66.3266 42.2504,-46.025"/>
<polygon fill="#1a2833" stroke="#1a2833" points="45.6733,-46.786 45.0707,-36.2083 38.9454,-44.853 45.6733,-46.786"/>
<text text-anchor="middle" x="50.1436" y="-98.5" font-family="Times,serif" font-size="10.00" fill="#767676">^7.2</text>
</g>
<!-- yiisoft/strings -->
<g id="node3" class="node"><title>yiisoft/strings</title>
<path fill="#eeeeee" stroke="black" d="M263.644,-119C263.644,-119 82.6436,-119 82.6436,-119 76.6436,-119 70.6436,-113 70.6436,-107 70.6436,-107 70.6436,-95 70.6436,-95 70.6436,-89 76.6436,-83 82.6436,-83 82.6436,-83 263.644,-83 263.644,-83 269.644,-83 275.644,-89 275.644,-95 275.644,-95 275.644,-107 275.644,-107 275.644,-113 269.644,-119 263.644,-119"/>
<text text-anchor="middle" x="173.144" y="-97.3" font-family="Times,serif" font-size="14.00" fill="#314b5f">yiisoft/strings: dev&#45;master</text>
</g>
<!-- yiisoft/arrays&#45;&gt;yiisoft/strings -->
<g id="edge4" class="edge"><title>yiisoft/arrays&#45;&gt;yiisoft/strings</title>
<path fill="none" stroke="#1a2833" d="M92.5825,-166.608C107.21,-154.878 127.128,-138.904 143.499,-125.775"/>
<polygon fill="#1a2833" stroke="#1a2833" points="146.078,-128.193 151.689,-119.206 141.698,-122.732 146.078,-128.193"/>
<text text-anchor="middle" x="154.144" y="-140" font-family="Times,serif" font-size="10.00" fill="#767676">^3.0@dev</text>
</g>
<!-- yiisoft/strings&#45;&gt;php -->
<g id="edge3" class="edge"><title>yiisoft/strings&#45;&gt;php</title>
<path fill="none" stroke="#1a2833" d="M147.271,-82.822C129.236,-70.848 104.986,-54.748 85.3558,-41.7146"/>
<polygon fill="#1a2833" stroke="#1a2833" points="87.2463,-38.7687 76.9794,-36.1533 83.3744,-44.6004 87.2463,-38.7687"/>
<text text-anchor="middle" x="132.144" y="-57" font-family="Times,serif" font-size="10.00" fill="#767676">^7.2</text>
</g>
<!-- ext&#45;mbstring -->
<g id="node4" class="node"><title>ext&#45;mbstring</title>
<path fill="#eeeeee" stroke="black" d="M215.644,-36C215.644,-36 130.644,-36 130.644,-36 124.644,-36 118.644,-30 118.644,-24 118.644,-24 118.644,-12 118.644,-12 118.644,-6 124.644,-0 130.644,-0 130.644,-0 215.644,-0 215.644,-0 221.644,-0 227.644,-6 227.644,-12 227.644,-12 227.644,-24 227.644,-24 227.644,-30 221.644,-36 215.644,-36"/>
<text text-anchor="middle" x="173.144" y="-14.3" font-family="Times,serif" font-size="14.00" fill="#314b5f">ext&#45;mbstring</text>
</g>
<!-- yiisoft/strings&#45;&gt;ext&#45;mbstring -->
<g id="edge2" class="edge"><title>yiisoft/strings&#45;&gt;ext&#45;mbstring</title>
<path fill="none" stroke="#1a2833" d="M173.144,-82.822C173.144,-72.1903 173.144,-58.306 173.144,-46.2035"/>
<polygon fill="#1a2833" stroke="#1a2833" points="176.644,-46.1532 173.144,-36.1533 169.644,-46.1533 176.644,-46.1532"/>
<text text-anchor="middle" x="176.144" y="-57" font-family="Times,serif" font-size="10.00" fill="#767676">*</text>
</g>
</g>
</svg>
