<?xml version="1.0" encoding="UTF-8"?><svg xmlns="http://www.w3.org/2000/svg" xmlns:xlink="http://www.w3.org/1999/xlink" fill-opacity="1" color-rendering="auto" color-interpolation="auto" text-rendering="auto" stroke="black" stroke-linecap="square" width="543" stroke-miterlimit="10" shape-rendering="auto" stroke-opacity="1" fill="black" stroke-dasharray="none" font-weight="normal" stroke-width="1" height="437" font-family="'Dialog'" font-style="normal" stroke-linejoin="miter" font-size="12px" stroke-dashoffset="0" image-rendering="auto">
  <!--Generated by ySVG 2.5-->
  <defs id="genericDefs"/>
  <g>
    <defs id="defs1">
      <clipPath clipPathUnits="userSpaceOnUse" id="clipPath1">
        <path d="M0 0 L543 0 L543 437 L0 437 L0 0 Z"/>
      </clipPath>
      <clipPath clipPathUnits="userSpaceOnUse" id="clipPath2">
        <path d="M270 21 L813 21 L813 458 L270 458 L270 21 Z"/>
      </clipPath>
    </defs>
    <g fill="white" text-rendering="geometricPrecision" shape-rendering="geometricPrecision" transform="translate(-270,-21)" stroke="white">
      <rect x="270" width="543" height="437" y="21" clip-path="url(#clipPath2)" stroke="none"/>
    </g>
    <g fill="rgb(245,245,245)" text-rendering="geometricPrecision" shape-rendering="geometricPrecision" transform="matrix(1,0,0,1,-270,-21)" stroke="rgb(245,245,245)">
      <rect x="553" y="162.6235" clip-path="url(#clipPath2)" width="230" rx="4" ry="4" height="280.3765" stroke="none"/>
      <rect x="553" y="162.6235" clip-path="url(#clipPath2)" fill="rgb(235,235,235)" width="230" height="22.3765" stroke="none"/>
    </g>
    <g font-size="15px" stroke-linecap="butt" transform="matrix(1,0,0,1,-270,-21)" text-rendering="geometricPrecision" font-family="sans-serif" shape-rendering="geometricPrecision" stroke-miterlimit="1.45">
      <text x="651.8154" xml:space="preserve" y="179.7041" clip-path="url(#clipPath2)" stroke="none">Short-term memory</text>
      <rect x="553" y="162.6235" clip-path="url(#clipPath2)" fill="none" width="230" stroke-dasharray="6,2" rx="4" ry="4" height="280.3765"/>
    </g>
    <g fill="rgb(255,204,0)" text-rendering="geometricPrecision" shape-rendering="geometricPrecision" transform="matrix(1,0,0,1,-270,-21)" stroke="rgb(255,204,0)">
      <rect x="568" width="200" height="41" y="200" clip-path="url(#clipPath2)" stroke="none"/>
    </g>
    <g text-rendering="geometricPrecision" stroke-miterlimit="1.45" shape-rendering="geometricPrecision" transform="matrix(1,0,0,1,-270,-21)" stroke-linecap="butt">
      <rect fill="none" x="568" width="200" height="41" y="200" clip-path="url(#clipPath2)"/>
    </g>
    <g fill="rgb(255,204,0)" text-rendering="geometricPrecision" shape-rendering="geometricPrecision" transform="matrix(1,0,0,1,-270,-21)" stroke="rgb(255,204,0)">
      <rect x="568" width="200" height="41" y="252" clip-path="url(#clipPath2)" stroke="none"/>
    </g>
    <g text-rendering="geometricPrecision" stroke-miterlimit="1.45" shape-rendering="geometricPrecision" transform="matrix(1,0,0,1,-270,-21)" stroke-linecap="butt">
      <rect fill="none" x="568" width="200" height="41" y="252" clip-path="url(#clipPath2)"/>
    </g>
    <g fill="rgb(255,204,0)" text-rendering="geometricPrecision" shape-rendering="geometricPrecision" transform="matrix(1,0,0,1,-270,-21)" stroke="rgb(255,204,0)">
      <rect x="568" width="200" height="41" y="304" clip-path="url(#clipPath2)" stroke="none"/>
    </g>
    <g text-rendering="geometricPrecision" stroke-miterlimit="1.45" shape-rendering="geometricPrecision" transform="matrix(1,0,0,1,-270,-21)" stroke-linecap="butt">
      <rect fill="none" x="568" width="200" height="41" y="304" clip-path="url(#clipPath2)"/>
    </g>
    <g fill="rgb(255,204,0)" text-rendering="geometricPrecision" shape-rendering="geometricPrecision" transform="matrix(1,0,0,1,-270,-21)" stroke="rgb(255,204,0)">
      <rect x="568" width="200" height="41" y="356" clip-path="url(#clipPath2)" stroke="none"/>
    </g>
    <g text-rendering="geometricPrecision" stroke-miterlimit="1.45" shape-rendering="geometricPrecision" transform="matrix(1,0,0,1,-270,-21)" stroke-linecap="butt">
      <rect fill="none" x="568" width="200" height="41" y="356" clip-path="url(#clipPath2)"/>
    </g>
    <g fill="rgb(255,204,0)" text-rendering="geometricPrecision" shape-rendering="geometricPrecision" transform="matrix(1,0,0,1,-270,-21)" stroke="rgb(255,204,0)">
      <circle r="26.5" clip-path="url(#clipPath2)" cx="586.7" cy="63.1" stroke="none"/>
    </g>
    <g text-rendering="geometricPrecision" stroke-miterlimit="1.45" shape-rendering="geometricPrecision" font-family="sans-serif" transform="matrix(1,0,0,1,-270,-21)" stroke-linecap="butt">
      <text x="573.3553" xml:space="preserve" y="67.8139" clip-path="url(#clipPath2)" stroke="none">Input</text>
      <circle fill="none" r="26.5" clip-path="url(#clipPath2)" cx="586.7" cy="63.1"/>
    </g>
    <g fill="rgb(255,204,0)" text-rendering="geometricPrecision" shape-rendering="geometricPrecision" transform="matrix(1,0,0,1,-270,-21)" stroke="rgb(255,204,0)">
      <circle r="23" clip-path="url(#clipPath2)" cx="760" cy="59.6" stroke="none"/>
    </g>
    <g text-rendering="geometricPrecision" stroke-miterlimit="1.45" shape-rendering="geometricPrecision" font-family="sans-serif" transform="matrix(1,0,0,1,-270,-21)" stroke-linecap="butt">
      <text x="741.9883" xml:space="preserve" y="64.3139" clip-path="url(#clipPath2)" stroke="none">Output</text>
      <circle fill="none" r="23" clip-path="url(#clipPath2)" cx="760" cy="59.6"/>
      <path fill="none" d="M568.0173 310.3765 L537.5938 305 L507.5 298.5 L484.0938 292 L467.375 285.5 L457.3438 279 L454.8359 275.75 L454 272.5 L454.8359 269.25 L457.3438 266 L467.375 259.5 L484.0938 253 L507.5 246.5 L537.5938 240 L560.1394 236.0157" clip-path="url(#clipPath2)"/>
      <path d="M568.0173 234.6235 L555.3303 231.7881 L559.1547 236.1898 L557.0706 241.6355 Z" clip-path="url(#clipPath2)" stroke="none"/>
      <text x="287.2036" xml:space="preserve" y="285.9563" clip-path="url(#clipPath2)" stroke="none">Concentration and repeating</text>
      <path fill="none" d="M571.464 84.7705 L561.2349 101.1773 L552.3196 118.2443 L545.9491 133.9968 L542.1235 148.4349 L540.8427 161.5585 L542.1066 173.3677 L545.9155 183.8624 L552.2691 193.0427 L561.0566 200.8105 L561.1434 200.8601" clip-path="url(#clipPath2)"/>
      <path d="M568.071 204.8612 L560.1804 194.5299 L560.2775 200.36 L555.179 203.1893 Z" clip-path="url(#clipPath2)" stroke="none"/>
      <path fill="none" d="M768.0125 205.3099 L774.7967 201.5006 L784.1615 193.5112 L791.1165 184.144 L795.6615 173.3987 L797.7967 161.2756 L797.522 147.7745 L794.8373 132.8955 L789.7429 116.6385 L782.2385 99.0036 L775.658 86.3841 L775.6063 86.2985" clip-path="url(#clipPath2)"/>
      <path d="M771.8683 79.2255 L773.0546 92.1712 L776.0735 87.1826 L781.8959 87.4988 Z" clip-path="url(#clipPath2)" stroke="none"/>
    </g>
  </g>
</svg>
